<svg width="529" height="530" viewBox="0 0 529 530" fill="none" xmlns="http://www.w3.org/2000/svg">
<path d="M80.0005 522.01C80.0005 526.428 83.5822 530.01 88.0005 530.01C92.4188 530.01 96.0005 526.428 96.0005 522.01L80.0005 522.01ZM442.834 167.01C442.834 190.574 461.936 209.677 485.501 209.677C509.065 209.677 528.167 190.574 528.167 167.01C528.167 143.446 509.065 124.343 485.501 124.343C461.936 124.343 442.834 143.446 442.834 167.01ZM96.0005 522.01C96.0005 394.103 138.866 281.255 208.334 213.552C277.337 146.302 373.132 122.929 482.092 174.247L488.909 159.772C373.869 105.591 270.914 130.219 197.167 202.093C123.885 273.514 80.0005 390.917 80.0005 522.01L96.0005 522.01Z" fill="black"/>
<path d="M88.6265 176.034C84.2218 175.689 80.3708 178.979 80.025 183.384C79.6793 187.788 82.9697 191.639 87.3744 191.985L88.6265 176.034ZM349.334 395.51C349.334 419.074 368.436 438.176 392 438.176C415.565 438.176 434.667 419.074 434.667 395.51C434.667 371.946 415.565 352.843 392 352.843C368.436 352.843 349.334 371.946 349.334 395.51ZM87.3744 191.985C159.692 197.662 222.649 216.008 273.087 249.37C323.41 282.656 361.717 331.177 384.425 398.081L399.576 392.939C375.784 322.843 335.341 271.364 281.914 236.025C228.602 200.762 162.809 181.858 88.6265 176.034L87.3744 191.985Z" fill="black"/>
<path d="M5.30815 387.544C1.14763 386.057 -1.01964 381.478 0.46741 377.318C1.95446 373.157 6.53271 370.99 10.6932 372.477L5.30815 387.544ZM249.778 83.2362C227.562 75.3811 215.919 51.0035 223.774 28.7871C231.629 6.57068 256.007 -5.07152 278.224 2.78348C300.44 10.6385 312.082 35.0162 304.227 57.2326C296.372 79.449 271.994 91.0912 249.778 83.2362ZM10.6932 372.477C135.428 417.06 228.282 373.719 274.573 301.325C321.238 228.348 321.258 125.035 257.828 48.0989L270.173 37.9208C338.244 120.485 338.264 231.422 288.053 309.945C237.47 389.051 136.574 434.461 5.30815 387.544L10.6932 372.477Z" fill="black"/>
</svg>
